<svg xmlns="http://www.w3.org/2000/svg" viewBox="0 0 512 512" width="512" height="512">
  <defs>
    <linearGradient id="bg" x1="0%" y1="0%" x2="100%" y2="100%">
      <stop offset="0%" stop-color="#4CAF50"/>
      <stop offset="100%" stop-color="#2E7D32"/>
    </linearGradient>
    <linearGradient id="frame" x1="0%" y1="0%" x2="100%" y2="100%">
      <stop offset="0%" stop-color="#8D6E63"/>
      <stop offset="100%" stop-color="#5D4037"/>
    </linearGradient>
  </defs>

  <rect width="512" height="512" rx="100" ry="100" fill="url(#bg)"/>
  <ellipse cx="256" cy="390" rx="190" ry="28" fill="#388E3C" opacity="0.6"/>

  <rect x="100" y="200" width="18" height="185" rx="9" fill="url(#frame)"/>
  <rect x="394" y="200" width="18" height="185" rx="9" fill="url(#frame)"/>
  <rect x="95" y="190" width="322" height="20" rx="10" fill="url(#frame)"/>
  <rect x="185" y="210" width="16" height="175" rx="8" fill="#6D4C41"/>
  <rect x="311" y="210" width="16" height="175" rx="8" fill="#6D4C41"/>
  <rect x="180" y="260" width="152" height="16" rx="8" fill="#6D4C41"/>

  <rect x="218" y="270" width="130" height="18" rx="9" fill="#FF7043" transform="rotate(40 280 280)"/>

  <line x1="140" y1="210" x2="148" y2="320" stroke="#795548" stroke-width="5" stroke-linecap="round"/>
  <line x1="174" y1="210" x2="166" y2="320" stroke="#795548" stroke-width="5" stroke-linecap="round"/>
  <rect x="138" y="318" width="36" height="12" rx="6" fill="#FF8F00"/>

  <rect x="100" y="370" width="140" height="14" rx="7" fill="#FF8F00"/>
  <rect x="163" y="363" width="14" height="32" rx="7" fill="#6D4C41"/>
  <circle cx="108" cy="363" r="9" fill="#FF8F00"/>
  <circle cx="232" cy="377" r="9" fill="#FF8F00"/>
  <circle cx="118" cy="347" r="16" fill="#FFCC80"/>
  <circle cx="222" cy="361" r="16" fill="#FFCC80"/>

  <circle cx="320" cy="298" r="14" fill="#FFCC80"/>

  <path d="M390 80 C390 58 422 58 422 80 C422 102 406 118 406 118 C406 118 390 102 390 80 Z" fill="#FFFFFF" opacity="0.9"/>
  <circle cx="406" cy="80" r="9" fill="#2E7D32"/>
</svg>
