<svg xmlns="http://www.w3.org/2000/svg" viewBox="0 0 1080 1080" width="1080" height="1080">
  <defs>
    <linearGradient id="bg" x1="0%" y1="0%" x2="100%" y2="100%">
      <stop offset="0%" stop-color="#74A9E7"/>
      <stop offset="100%" stop-color="#5063BD"/>
    </linearGradient>
  </defs>

  <!-- Gradient rounded background -->
  <rect width="1080" height="1080" rx="220" ry="220" fill="url(#bg)"/>

  <!-- Shadow ellipse under equipment -->
  <ellipse cx="530" cy="845" rx="375" ry="44" fill="#3A4E9A" opacity="0.45"/>

  <!-- ===== OUTER FRAME ===== -->
  <rect x="148" y="370" width="778" height="36" rx="18" fill="#6B3A2C"/>
  <rect x="148" y="386" width="36" height="445" rx="18" fill="#6B3A2C"/>
  <rect x="890" y="386" width="36" height="445" rx="18" fill="#6B3A2C"/>

  <!-- ===== PARALLEL BARS (H-FRAME) ===== -->
  <rect x="342" y="410" width="32" height="308" rx="16" fill="#6B3A2C"/>
  <rect x="620" y="410" width="32" height="308" rx="16" fill="#6B3A2C"/>
  <rect x="342" y="448" width="310" height="28" rx="14" fill="#6B3A2C"/>
  <rect x="342" y="545" width="310" height="28" rx="14" fill="#6B3A2C"/>

  <!-- ===== SWING ===== -->
  <line x1="260" y1="386" x2="244" y2="702" stroke="#6B3A2C" stroke-width="10" stroke-linecap="round"/>
  <line x1="314" y1="386" x2="328" y2="702" stroke="#6B3A2C" stroke-width="10" stroke-linecap="round"/>
  <rect x="234" y="700" width="104" height="26" rx="13" fill="#F4901C"/>

  <!-- ===== CORAL DIAGONAL BAR ===== -->
  <line x1="492" y1="508" x2="710" y2="650" stroke="#E8705A" stroke-width="44" stroke-linecap="round"/>
  <circle cx="710" cy="650" r="34" fill="#F5B57A"/>

  <!-- ===== ORANGE BOTTOM BAR ===== -->
  <rect x="184" y="783" width="368" height="30" rx="15" fill="#F4901C"/>
  <circle cx="184" cy="798" r="41" fill="#F5B57A"/>
  <circle cx="552" cy="798" r="41" fill="#F5B57A"/>
  <circle cx="372" cy="812" r="23" fill="#6B3A2C"/>

  <!-- ===== LOCATION PIN ===== -->
  <path d="M875 125 C838 125 808 155 808 192 C808 232 875 282 875 282 C875 282 942 232 942 192 C942 155 912 125 875 125 Z" fill="white"/>
  <circle cx="875" cy="192" r="26" fill="url(#bg)"/>

</svg>